<?xml version="1.0" encoding="utf-8"?>
<!-- Generator: Adobe Illustrator 19.2.1, SVG Export Plug-In . SVG Version: 6.00 Build 0)  -->
<svg version="1.1" id="Capa_1" xmlns="http://www.w3.org/2000/svg" xmlns:xlink="http://www.w3.org/1999/xlink" x="0px" y="0px"
	 viewBox="0 0 78.7 38.6" style="enable-background:new 0 0 78.7 38.6;" xml:space="preserve">
<style type="text/css">
	.st0{fill:#009AC6;}
	.st1{fill:#78C5E0;}
	.st2{fill:#8EC7DD;}
	.st3{fill:#00A2C5;}
	.st4{fill:#B9DAE9;}
</style>
<title>BirtLH-GV_</title>
<path class="st0" d="M0.5,25.4V11.3c0-0.3,0.1-0.5,0.3-0.7c0.3-0.1,0.6-0.2,0.9-0.2h4.1c2.9,0,4.4,1.2,4.4,3.8
	c0,1.8-0.6,2.9-1.8,3.5c0.7,0.2,1.3,0.7,1.7,1.2c0.4,0.7,0.6,1.5,0.6,2.3v0.4c0.1,1.3-0.3,2.5-1.1,3.5c-0.8,0.8-2,1.2-3.1,1.1H1.7
	c-0.3,0-0.6-0.1-0.9-0.2C0.6,25.9,0.5,25.7,0.5,25.4z M3.3,16.6h2.5c0.5,0,1-0.1,1.3-0.4c0.3-0.4,0.5-0.9,0.4-1.3
	c0-0.5-0.1-1-0.4-1.3C6.7,13.1,6.2,13,5.8,13H3.3V16.6z M3.3,23.7h2.5c1.5,0,2.1-0.8,2.1-2.3v-0.3c0-0.6-0.2-1.3-0.6-1.8
	c-0.4-0.4-1-0.6-1.6-0.6H3.3V23.7z"/>
<path class="st0" d="M12.7,25.3V11.2c0-0.3,0.2-0.6,0.4-0.7c0.3-0.2,0.7-0.2,1-0.2s0.7,0.1,1,0.2c0.3,0.1,0.4,0.4,0.4,0.7v14.1
	c0,0.3-0.2,0.5-0.4,0.7c-0.3,0.1-0.7,0.2-1,0.2s-0.7-0.1-1-0.2C12.9,25.9,12.7,25.6,12.7,25.3z"/>
<path class="st0" d="M18.2,25.3V11.2c0-0.2,0.1-0.4,0.2-0.6c0.2-0.2,0.4-0.3,0.7-0.2h4.2c3.5,0,5.1,1.6,5.1,4.6c0.1,1-0.2,2-0.8,2.9
	c-0.5,0.7-1.3,1.2-2.1,1.5l2.8,5.3c0.1,0.1,0.1,0.2,0.1,0.3c0,0.4-0.2,0.8-0.6,1c-0.3,0.3-0.8,0.5-1.2,0.4c-0.4,0-0.8-0.3-1-0.7
	l-3.1-5.9h-1.8v5.7c0,0.3-0.2,0.5-0.4,0.7c-0.3,0.2-0.7,0.2-1,0.2s-0.7-0.1-1-0.2C18.3,25.9,18.2,25.6,18.2,25.3z M20.9,17.5h2.3
	c1.1,0.2,2.2-0.6,2.3-1.8c0-0.2,0-0.4,0-0.6c0.2-1.1-0.6-2.2-1.8-2.3c-0.2,0-0.4,0-0.6,0h-2.3v4.7H20.9z"/>
<path class="st0" d="M29.2,11.7c0-0.3,0.1-0.6,0.2-0.9c0.1-0.2,0.4-0.4,0.7-0.3h9.2c0.3,0,0.5,0.1,0.7,0.3c0.3,0.6,0.3,1.2,0,1.8
	c-0.1,0.2-0.4,0.4-0.7,0.3h-3.1v12.5c0,0.3-0.2,0.5-0.4,0.7c-0.3,0.1-0.7,0.2-1,0.2s-0.7-0.1-1-0.2s-0.4-0.4-0.4-0.7V12.9h-3.1
	c-0.3,0-0.5-0.1-0.7-0.3C29.3,12.3,29.2,12,29.2,11.7z"/>
<path class="st1" d="M40.6,27.3V16.6c0-0.2,0.1-0.5,0.3-0.6c0.6-0.3,1.2-0.3,1.8,0c0.2,0.1,0.3,0.3,0.3,0.6v9.3h3.8
	c0.2,0,0.5,0.1,0.6,0.3c0.3,0.5,0.3,1.1,0,1.6c-0.1,0.2-0.3,0.3-0.6,0.3h-5.3c-0.3,0-0.5-0.1-0.8-0.2C40.7,27.7,40.6,27.5,40.6,27.3
	z"/>
<path class="st1" d="M48.9,27.3V16.6c0-0.2,0.1-0.5,0.3-0.6c0.6-0.3,1.2-0.3,1.8,0c0.2,0.1,0.3,0.3,0.3,0.6v4.1h3.4v-4.1
	c0-0.2,0.1-0.5,0.3-0.6c0.6-0.3,1.2-0.3,1.8,0c0.2,0.1,0.3,0.3,0.3,0.6v10.7c0,0.2-0.1,0.5-0.3,0.6c-0.6,0.3-1.2,0.3-1.8,0
	c-0.2-0.1-0.3-0.3-0.3-0.6v-4.6h-3.4v4.6c0,0.2-0.1,0.5-0.3,0.6c-0.6,0.3-1.2,0.3-1.8,0C49,27.8,48.8,27.6,48.9,27.3z"/>
<path class="st2" d="M68.2,34.4c2.7-3.7,4.4-8.1,4.8-12.6l-2.9-0.3c-0.3,3.9-1.7,7.6-3.9,10.7L68.2,34.4z"/>
<path class="st3" d="M75.3,19.9c0.2,5.9-1.8,11.6-5.5,16.1l1.8,2c4.3-5.1,6.6-11.5,6.5-18.2v-0.4l-2.7,0.1v0.4H75.3z"/>
<path class="st3" d="M71,0.8l-1.7,2c3.5,4,5.7,9.2,6,14.5l2.7-0.1C77.6,11.2,75.1,5.4,71,0.8z"/>
<path class="st2" d="M66,6.9c3,3.7,4.6,8.4,4.5,13.2l2.9,0.1c0.2-5.6-1.7-11.1-5.4-15.4L66,6.9z"/>
<path class="st4" d="M67.8,16.8c-0.4-3-1.6-5.8-3.5-8.2l-1.5,1.7c1.5,2,2.4,4.3,2.7,6.7c0.1,1.2,0.1,2.5,0,3.7
	c-0.3,2.7-1.3,5.2-2.9,7.4l1.5,1.7c2-2.6,3.3-5.6,3.7-8.8l0,0C67.9,19.6,67.9,18.2,67.8,16.8z"/>
</svg>
